<?xml version="1.0" standalone="no"?><!DOCTYPE svg PUBLIC "-//W3C//DTD SVG 1.1//EN" "http://www.w3.org/Graphics/SVG/1.1/DTD/svg11.dtd">
<svg t="1725706590107" class="icon" viewBox="0 0 1024 1024" version="1.1" xmlns="http://www.w3.org/2000/svg" p-id="5123" xmlns:xlink="http://www.w3.org/1999/xlink" width="32" height="32"><path d="M512.482597 435.931429c-5.851429 0-96.548571-2.925714-105.325715-108.251429 2.925714-99.474286 99.474286-108.251429 105.325715-108.251429 5.851429 0 102.4 8.777143 105.325714 108.251429-8.777143 105.325714-99.474286 108.251429-105.325714 108.251429m254.537142 2.925714C772.871168 146.285714 530.036882 11.702857 512.482597 2.925714 494.928311 11.702857 252.094025 146.285714 255.019739 438.857143 205.282597 471.04 152.619739 526.628571 161.396882 626.102857c8.777143 99.474286 105.325714 163.84 140.434286 160.914286 38.034286-2.925714 26.331429-32.182857 26.331429-32.182857l11.702857-49.737143s52.662857 81.92 70.217143 81.92h198.948571c17.554286 0 70.217143-81.92 70.217143-81.92l11.702857 49.737143s-11.702857 26.331429 26.331429 32.182857c38.034286 2.925714 131.657143-61.44 140.434285-160.914286 11.702857-96.548571-40.96-155.062857-90.697143-187.245714" fill="#4CAFE3" p-id="5124"></path><path d="M459.819739 945.005714c0 11.702857-8.777143 20.48-20.48 20.48s-20.48-8.777143-20.48-20.48v-108.251428c0-11.702857 8.777143-20.48 20.48-20.48s20.48 8.777143 20.48 20.48v108.251428zM538.814025 1000.594286c0 11.702857-8.777143 23.405714-23.405714 23.405714-11.702857 0-23.405714-8.777143-23.405714-23.405714v-160.914286c0-11.702857 8.777143-23.405714 23.405714-23.405714 11.702857 0 23.405714 8.777143 23.405714 23.405714v160.914286zM611.956882 918.674286c0 11.702857-8.777143 20.48-20.48 20.48s-20.48-8.777143-20.48-20.48v-76.068572c0-11.702857 8.777143-20.48 20.48-20.48 11.702857 0 20.48 8.777143 20.48 20.48v76.068572z" fill="#4CAFE3" p-id="5125">
</path></svg>